Coordinates
version=1
nRows=13
nColumns=40
inDegrees=yes

Units are S.I. units (second, meters, Newtons, ...)
Angles are in degrees.

endheader
time	pelvis_tilt	pelvis_list	pelvis_rotation	pelvis_tx	pelvis_ty	pelvis_tz	hip_flexion_r	hip_adduction_r	hip_rotation_r	knee_angle_r	knee_angle_r_beta	ankle_angle_r	subtalar_angle_r	mtp_angle_r	hip_flexion_l	hip_adduction_l	hip_rotation_l	knee_angle_l	knee_angle_l_beta	ankle_angle_l	subtalar_angle_l	mtp_angle_l	lumbar_extension	lumbar_bending	lumbar_rotation	arm_flex_r	arm_add_r	arm_rot_r	elbow_flex_r	pro_sup_r	wrist_flex_r	wrist_dev_r	arm_flex_l	arm_add_l	arm_rot_l	elbow_flex_l	pro_sup_l	wrist_flex_l	wrist_dev_l
     16.77000000	      0.35622202	     -4.82843271	      3.52746204	      1.01469771	      0.93258294	      0.47621703	      7.41329602	      2.46023574	    -13.14619056	     17.85719023	     17.85719023	     11.82973978	     -2.83988691	     -5.56663979	     30.68551263	    -12.24435312	      2.07511828	     62.92099765	     62.92099765	      7.03801843	    -18.06977478	     10.78310546	     -9.97808753	      5.56393763	      3.12664959	     15.88400063	    -18.80956020	      3.18275108	     56.53815586	     45.70170127	      0.00000000	      0.00000000	     -7.26553355	     -8.93503969	     -7.30087569	     26.24449940	     45.57284107	      0.00000000	      0.00000000
     16.78271429	      0.06756558	     -4.79049917	      3.91509131	      1.01342583	      0.93264693	      0.47677187	      7.15933428	      2.54274079	    -13.30099581	     17.35058441	     17.35058441	     11.89533995	     -2.97786560	     -5.49670687	     31.68060149	    -12.27401576	      1.47050378	     60.28517887	     60.28517887	      7.27812035	    -18.49542634	     11.12347837	     -9.86193659	      5.49957350	      3.33831270	     17.05304911	    -18.90244589	      3.06222942	     57.36233009	     45.68207752	      0.00000000	      0.00000000	     -7.62760088	     -8.69105498	     -7.29718057	     26.05675185	     45.57076082	      0.00000000	      0.00000000
     16.79542857	     -0.06105147	     -4.75028850	      4.34836694	      1.01228038	      0.93300289	      0.47723081	      6.60150681	      2.66262535	    -13.51961229	     16.59720480	     16.59720480	     11.84432829	     -3.04731110	     -5.39485002	     32.26508360	    -12.21589084	      0.86923380	     57.30676035	     57.30676035	      7.59083694	    -18.78397027	     11.68688499	     -9.95535750	      5.43531588	      3.10143058	     18.20713162	    -18.71854098	      3.03921858	     58.88845202	     45.63268895	      0.00000000	      0.00000000	     -8.16290570	     -8.50790579	     -7.31892922	     25.73179425	     45.57478060	      0.00000000	      0.00000000
     16.80814286	     -0.22230148	     -4.77361710	      4.76489142	      1.01114343	      0.93311972	      0.47767962	      6.16189528	      2.82488424	    -13.77504054	     15.99172751	     15.99172751	     11.86185902	     -3.06375364	     -5.42155407	     32.76334735	    -12.14894356	      0.31907327	     54.19021258	     54.19021258	      7.92898663	    -18.91315148	     12.44136960	     -9.99326176	      5.44671680	      3.07211518	     19.27580875	    -18.75664261	      3.07333254	     60.51954078	     45.57724492	      0.00000000	      0.00000000	     -8.58156163	     -8.28027908	     -7.36442537	     25.51052815	     45.58583015	      0.00000000	      0.00000000
     16.82085714	     -0.44285708	     -4.81887388	      5.15984325	      1.00989863	      0.93300330	      0.47789967	      5.82159091	      2.96358031	    -14.13677601	     15.41110676	     15.41110676	     11.74297860	     -2.94422498	     -5.84712681	     33.23744440	    -11.94917956	     -0.06676911	     51.03052128	     51.03052128	      8.52820916	    -18.93416743	     13.93888749	    -10.05243032	      5.54414251	      3.37097361	     19.64102421	    -19.42723220	      3.45250703	     63.73555966	     45.44632294	      0.00000000	      0.00000000	     -8.74408188	     -8.00819250	     -7.64205392	     25.38139824	     45.67043920	      0.00000000	      0.00000000
     16.83357143	     -0.65100650	     -4.78844887	      5.51428161	      1.00868024	      0.93281784	      0.47805061	      5.58679305	      3.00431960	    -14.34774401	     15.08333886	     15.08333886	     11.85248180	     -3.01194573	     -5.87885763	     33.47977910	    -11.62076480	     -0.45803652	     47.66456513	     47.66456513	      8.73187316	    -18.89747012	     14.46485147	    -10.03780232	      5.51450981	      3.49324354	     20.73717057	    -19.42679999	      3.31467592	     64.59972031	     45.42638138	      0.00000000	      0.00000000	     -8.94817056	     -7.83684862	     -7.64250811	     25.20757221	     45.67398738	      0.00000000	      0.00000000
     16.84628571	     -0.83647619	     -4.76403164	      5.85709263	      1.00751039	      0.93257616	      0.47805363	      5.30759388	      3.03839415	    -14.62645421	     14.71951131	     14.71951131	     11.96009122	     -2.93969333	     -5.95113131	     33.58493629	    -11.17320515	     -0.59695219	     44.26769004	     44.26769004	      8.87391112	    -18.80357805	     14.87390545	    -10.07552962	      5.49885887	      3.46429702	     21.80649200	    -19.34124601	      3.23766455	     65.78259506	     45.39318924	      0.00000000	      0.00000000	     -9.12875743	     -7.65444587	     -7.65185515	     25.03803936	     45.68098387	      0.00000000	      0.00000000
     16.85900000	     -1.07530580	     -4.76812098	      6.17629521	      1.00627089	      0.93212203	      0.47791044	      5.15505451	      3.06929311	    -14.91356585	     14.46768570	     14.46768570	     12.08406191	     -2.86413841	     -6.04897458	     33.69093480	    -10.67269153	     -0.51100414	     40.93829532	     40.93829532	      8.94210946	    -18.53589351	     15.11385911	    -10.04973906	      5.50498593	      3.52115923	     22.82532677	    -19.32961204	      3.18395566	     66.84251377	     45.36354730	      0.00000000	      0.00000000	     -9.19487863	     -7.47135776	     -7.66022723	     24.96705559	     45.68767287	      0.00000000	      0.00000000
     16.87171429	     -1.22735917	     -4.77074561	      6.47543001	      1.00516352	      0.93167741	      0.47768287	      4.92607426	      3.08482814	    -15.26373339	     14.28092064	     14.28092064	     12.28301428	     -2.66498674	     -6.22326231	     33.62612043	    -10.13813878	     -0.19172368	     37.71938169	     37.71938169	      8.88659933	    -18.11751812	     15.00104236	    -10.10613171	      5.50033239	      3.53017915	     23.73623849	    -19.22097913	      3.20360369	     68.10715721	     45.32403155	      0.00000000	      0.00000000	     -9.21922743	     -7.34056962	     -7.69100231	     24.92264850	     45.70109577	      0.00000000	      0.00000000
     16.88442857	     -1.41958056	     -4.82173826	      6.77150203	      1.00409271	      0.93106805	      0.47725636	      4.74788854	      3.09038200	    -15.86188535	     14.11502813	     14.11502813	     12.46666656	     -2.04455014	     -6.54531569	     33.52568146	     -9.67128301	      0.18478313	     34.58494160	     34.58494160	      8.30654548	    -17.47807066	     13.19522594	    -10.16970997	      5.58732117	      3.65448528	     24.34516843	    -19.39435157	      3.32049008	     70.14777248	     45.25495672	      0.00000000	      0.00000000	     -9.09334033	     -7.16208616	     -7.85277229	     25.02465482	     45.75706109	      0.00000000	      0.00000000
     16.89714286	     -1.67294061	     -4.99153246	      7.03977010	      1.00299332	      0.93025851	      0.47693123	      4.74651343	      3.26845473	    -16.05022243	     14.09968707	     14.09968707	     12.65491908	     -2.16606529	     -6.62639514	     33.67233507	     -9.36460450	      0.73388750	     32.05457034	     32.05457034	      8.50400019	    -16.27762583	     13.26675251	    -10.05876720	      5.73478966	      3.88406820	     25.24420392	    -19.37674263	      3.24631536	     70.55206499	     45.24838646	      0.00000000	      0.00000000	     -8.83825102	     -7.05635235	     -7.83894533	     25.12995999	     45.76108546	      0.00000000	      0.00000000
     16.90985714	     -1.80751671	     -4.86682439	      7.19826362	      1.00221921	      0.92984757	      0.47648070	      4.48392597	      3.14891807	    -16.15772843	     13.94836270	     13.94836270	     12.89067522	     -2.11946831	     -6.69201299	     33.40910851	     -8.88774897	      0.99876548	     29.57455611	     29.57455611	      8.67815176	    -14.86276188	     13.06213803	    -10.11231807	      5.53159243	      3.91317265	     26.05786085	    -19.04518719	      3.26064480	     71.19368566	     45.23058979	      0.00000000	      0.00000000	     -8.66576792	     -7.02061846	     -7.83481203	     25.19874800	     45.76723692	      0.00000000	      0.00000000
     16.92257143	     -1.99122318	     -5.03767934	      7.42718812	      1.00143682	      0.92911287	      0.47599259	      4.36321590	      3.32306614	    -16.38551105	     13.90275181	     13.90275181	     13.10595544	     -2.10523810	     -6.77951794	     33.46987808	     -8.68752317	      1.56011642	     27.77075094	     27.77075094	      8.81637823	    -13.56189117	     12.94753006	    -10.05136709	      5.68119794	      4.04451389	     26.87417773	    -18.84489443	      3.25742568	     71.64327149	     45.21967779	      0.00000000	      0.00000000	     -8.28777277	     -7.00174868	     -7.82576330	     25.37816444	     45.77392888	      0.00000000	      0.00000000
